<svg width="200" height="50" viewBox="0 0 200 50" fill="none" xmlns="http://www.w3.org/2000/svg">
  <rect x="10" y="15" width="30" height="20" fill="#144887"/>
  <path d="M55 20H57.232L60.408 25.456L63.584 20H65.816V30H63.944V22.856L60.408 28.6H60.328L56.8 22.872V30H55V20Z" fill="#144887"/>
  <path d="M68.1206 20H71.8806C72.8406 20 73.6566 20.152 74.3286 20.456C75.0006 20.76 75.5046 21.2 75.8406 21.776C76.1846 22.352 76.3566 23.024 76.3566 23.792C76.3566 24.56 76.1846 25.232 75.8406 25.808C75.5046 26.384 75.0006 26.824 74.3286 27.128C73.6566 27.432 72.8406 27.584 71.8806 27.584H69.9926V30H68.1206V20ZM71.7606 25.904C72.5046 25.904 73.0646 25.736 73.4406 25.4C73.8166 25.064 74.0046 24.544 74.0046 23.84C74.0046 23.136 73.8166 22.616 73.4406 22.28C73.0646 21.944 72.5046 21.776 71.7606 21.776H69.9926V25.904H71.7606Z" fill="#144887"/>
  <path d="M81.0553 20H82.9273L86.6873 30H84.6873L83.9753 27.92H80.0233L79.3113 30H77.2953L81.0553 20ZM83.4393 26.144L82.0073 21.968L80.5593 26.144H83.4393Z" fill="#144887"/>
  <path d="M88.0159 20H90.8959C91.8559 20 92.6959 20.136 93.4159 20.408C94.1359 20.68 94.7359 21.064 95.2159 21.56C95.6959 22.056 96.0559 22.64 96.2959 23.312C96.5359 23.984 96.6559 24.728 96.6559 25.544C96.6559 26.296 96.5359 26.992 96.2959 27.632C96.0559 28.272 95.6959 28.832 95.2159 29.312C94.7359 29.792 94.1359 30.168 93.4159 30.44C92.6959 30.712 91.8559 30.848 90.8959 30.848H88.0159V20ZM90.8159 29.072C91.3759 29.072 91.8719 28.992 92.3039 28.832C92.7359 28.664 93.0959 28.432 93.3839 28.136C93.6719 27.832 93.8879 27.472 94.0319 27.056C94.1839 26.632 94.2599 26.16 94.2599 25.64C94.2599 25.016 94.1599 24.464 93.9599 23.984C93.7599 23.504 93.4639 23.112 93.0719 22.808C92.6799 22.504 92.1999 22.28 91.6319 22.136C91.0719 21.992 90.4399 21.92 89.7359 21.92H89.8879V29.072H90.8159Z" fill="#144887"/>
  <path d="M98.3381 20H104.114V21.776H100.21V24.048H103.562V25.824H100.21V28.224H104.114V30H98.3381V20Z" fill="#144887"/>
  <path d="M108.6 20H110.808L114.744 26.992V20H116.616V30H114.408L110.472 23.016V30H108.6V20Z" fill="#144887"/>
  <path d="M124.993 27.264L127.225 27.84C127.041 28.432 126.753 28.936 126.361 29.352C125.969 29.768 125.481 30.088 124.897 30.312C124.313 30.536 123.641 30.648 122.881 30.648C121.937 30.648 121.097 30.48 120.361 30.144C119.641 29.808 119.041 29.328 118.561 28.704C118.081 28.072 117.729 27.328 117.505 26.472C117.281 25.608 117.169 24.656 117.169 23.616C117.169 22.576 117.289 21.64 117.529 20.808C117.777 19.976 118.137 19.264 118.609 18.672C119.089 18.072 119.681 17.608 120.385 17.28C121.097 16.952 121.913 16.784 122.833 16.784C123.649 16.784 124.345 16.896 124.921 17.12C125.497 17.336 125.969 17.624 126.337 17.984C126.713 18.344 127.001 18.744 127.201 19.184C127.409 19.624 127.553 20.072 127.633 20.528L125.369 21.016C125.289 20.584 125.169 20.216 125.009 19.912C124.857 19.608 124.633 19.368 124.337 19.192C124.049 19.016 123.665 18.928 123.185 18.928C122.649 18.928 122.193 19.04 121.817 19.264C121.441 19.48 121.137 19.76 120.905 20.104C120.673 20.448 120.497 20.824 120.377 21.232C120.265 21.64 120.193 22.032 120.161 22.408C120.137 22.776 120.121 23.096 120.113 23.368C120.113 24.064 120.169 24.744 120.281 25.408C120.401 26.064 120.593 26.64 120.857 27.136C121.129 27.624 121.489 28.008 121.937 28.288C122.393 28.568 122.961 28.708 123.641 28.708C124.113 28.708 124.513 28.632 124.841 28.48C125.177 28.32 125.449 28.112 125.657 27.856C125.873 27.592 126.049 27.296 126.185 26.968C126.329 26.632 126.417 26.288 126.449 25.936L124.217 25.576V23.904H128.665V30H127.505L127.225 27.264Z" fill="#144887"/>
  <path d="M132.071 20H133.943V24.952L137.975 20H140.559L136.367 24.672L140.751 30H138.199L134.903 25.808L133.943 26.84V30H132.071V20Z" fill="#144887"/>
</svg>
