<svg xmlns="http://www.w3.org/2000/svg" width="200" height="200" viewBox="0 0 200 200">
  <rect width="200" height="200" fill="#FF6B6B" />
  <path d="M57.5 50C49.5 50 43.5 52 39.5 56C35.5 60 33.5 65.5 33.5 72.5C33.5 79.5 35.5 85 39.5 89C43.5 93 49.5 95 57.5 95C65.5 95 71.5 93 75.5 89C79.5 85 81.5 79.5 81.5 72.5C81.5 65.5 79.5 60 75.5 56C71.5 52 65.5 50 57.5 50ZM57.5 85C53.5 85 50.5 84 48.5 82C46.5 80 45.5 77 45.5 72.5C45.5 68 46.5 65 48.5 63C50.5 61 53.5 60 57.5 60C61.5 60 64.5 61 66.5 63C68.5 65 69.5 68 69.5 72.5C69.5 77 68.5 80 66.5 82C64.5 84 61.5 85 57.5 85Z" fill="white" />
  <path d="M118.5 50C112.5 50 107.5 51 103.5 53C99.5 55 96.5 58 94.5 62C92.5 66 91.5 70.5 91.5 75.5C91.5 80.5 92.5 85 94.5 89C96.5 93 99.5 96 103.5 98C107.5 100 112.5 101 118.5 101C124.5 101 129.5 100 133.5 98C137.5 96 140.5 93 142.5 89C144.5 85 145.5 80.5 145.5 75.5C145.5 70.5 144.5 66 142.5 62C140.5 58 137.5 55 133.5 53C129.5 51 124.5 50 118.5 50ZM118.5 91C114.5 91 111.5 89.5 109.5 86.5C107.5 83.5 106.5 80 106.5 75.5C106.5 71 107.5 67.5 109.5 64.5C111.5 61.5 114.5 60 118.5 60C122.5 60 125.5 61.5 127.5 64.5C129.5 67.5 130.5 71 130.5 75.5C130.5 80 129.5 83.5 127.5 86.5C125.5 89.5 122.5 91 118.5 91Z" fill="white" />
  <rect x="55" y="110" width="90" height="25" fill="#FF6B6B" />
  <rect x="60" y="112" width="80" height="21" fill="white" />
  <text x="68" y="128" font-family="Arial" font-weight="bold" font-size="14" fill="#FF6B6B">SMARTBUH</text>
</svg>